inDegrees=no
num_controls=7
num_derivatives=13
num_iterations=140
num_multipliers=7
num_parameters=0
num_slacks=7
num_states=26
objective=5.408086
objective_accelerations=0.786919
objective_balance=0.025425
objective_effort=0.189397
objective_height=4.380992
objective_ligament=0.025353
solver_duration=1550.958318
status=Solve_Succeeded
success=true
DataType=double
version=3
OpenSimVersion=4.4-2022-07-23-0e9fedc
endheader
time	/jointset/ground_pelvis/pelvis_tilt/value	/jointset/ground_pelvis/pelvis_tx/value	/jointset/ground_pelvis/pelvis_ty/value	/jointset/hip_l/hip_flexion_l/value	/jointset/hip_l/hip_adduction_l/value	/jointset/hip_l/hip_rotation_l/value	/jointset/back/lumbar_extension/value	/jointset/patellofemoral_l/patellar_flexion_l/value	/jointset/knee_l/knee_flexion_l/value	/jointset/knee_l/knee_adduction_l/value	/jointset/knee_l/knee_rotation_l/value	/jointset/ankle_l/ankle_angle_l/value	/jointset/subtalar_l/subtalar_angle_l/value	/jointset/ground_pelvis/pelvis_tilt/speed	/jointset/ground_pelvis/pelvis_tx/speed	/jointset/ground_pelvis/pelvis_ty/speed	/jointset/hip_l/hip_flexion_l/speed	/jointset/hip_l/hip_adduction_l/speed	/jointset/hip_l/hip_rotation_l/speed	/jointset/back/lumbar_extension/speed	/jointset/patellofemoral_l/patellar_flexion_l/speed	/jointset/knee_l/knee_flexion_l/speed	/jointset/knee_l/knee_adduction_l/speed	/jointset/knee_l/knee_rotation_l/speed	/jointset/ankle_l/ankle_angle_l/speed	/jointset/subtalar_l/subtalar_angle_l/speed	/forceset/tau_hip_flexion_l	/forceset/tau_hip_adduction_l	/forceset/tau_hip_rotation_l	/forceset/tau_knee_flexion_l	/forceset/tau_ankle_angle_l	/forceset/tau_subtalar_angle_l	/forceset/tau_lumbar_extension	lambda_cid13_p0	lambda_cid13_p1	lambda_cid13_p2	lambda_cid13_p3	lambda_cid13_p4	lambda_cid13_p5	lambda_cid14_p0	/jointset/ground_pelvis/pelvis_tilt/accel	/jointset/ground_pelvis/pelvis_tx/accel	/jointset/ground_pelvis/pelvis_ty/accel	/jointset/hip_l/hip_flexion_l/accel	/jointset/hip_l/hip_adduction_l/accel	/jointset/hip_l/hip_rotation_l/accel	/jointset/back/lumbar_extension/accel	/jointset/patellofemoral_l/patellar_flexion_l/accel	/jointset/knee_l/knee_flexion_l/accel	/jointset/knee_l/knee_adduction_l/accel	/jointset/knee_l/knee_rotation_l/accel	/jointset/ankle_l/ankle_angle_l/accel	/jointset/subtalar_l/subtalar_angle_l/accel	gamma_cid13_p0	gamma_cid13_p1	gamma_cid13_p2	gamma_cid13_p3	gamma_cid13_p4	gamma_cid13_p5	gamma_cid14_p0
0.5	-0.2415100537004168	0.03295347542486286	0.7650904624023285	1.030025249206334	-0.3632836419072396	0.003268847909192395	-0.4020291687268703	0.981414877419963	0.9814148774199474	-0.03048134201375125	-0.1745328799536708	0.3231673703013762	0.1677261721705268	-0.8135208978118806	-0.1743868001441424	-0.552574680555977	2.507659276914818	0.04833490745441381	0.5325006761647938	-0.3049167984904445	2.053603176083702	2.053603176083557	0.3436077788216594	-1.105203736830542e-05	0.5314030592567742	0.2935150917566316	-0.1118557853640691	0.02530359356404533	-0.001864309051306775	-0.1925325702354609	-0.011432974762822	0.02140630353162419	0.1206988651761924	-27.1647899179971	-4.263527350593029	0.0824578155089133	0.1247102492744873	-437.4756881885907	-69.51372855675014	-4.191210572393506	0.3507323681670501	0.4084453900881321	-0.5062741220645161	-1.197696564468843	0.09457571459025957	-0.8642310738955201	1.446488935758353	-1.621958469675169	-1.621958469675178	-0.1128120308015544	-0.00417783007423625	-0.9370735051576903	0.0830333087897008	-5.038732504745497e-07	1.863004742100016e-07	7.704927033531412e-06	4.883782497818855e-07	-1.537157088746748e-06	-9.352477614571638e-07	-9.076743448897289e-07
0.51	-0.2496253490042659	0.03123032000364163	0.7595408135781792	1.055036628974422	-0.3627985400385997	0.008558196419853321	-0.4050070687285073	1.001866008828547	1.00186600882854	-0.02706257034126252	-0.1745328085370989	0.3284327314629893	0.1706602944732284	-0.8094144007041063	-0.1702249845878476	-0.5572255013541506	2.494270684120158	0.0486784561517656	0.5253367365075648	-0.2906430435583643	2.036329355944746	2.036329355944667	0.3401187375370939	5.248090167060438e-06	0.5215852941455694	0.2932457604563931	-0.1170399942948429	0.02624043816089136	-0.002418246868210745	-0.1946735015532587	-0.01360153956237832	0.02184776570456444	0.1245936714274316	-28.02960501273253	-4.234770750450754	-0.001012836781300763	0.3931316076006965	-441.0381906018936	-69.6282452665975	-3.598350617613289	0.4591527245706001	0.4230470300282252	-0.4253506332702988	-1.461392057321078	0.001986320722898916	-0.6481950388504732	1.420842513695314	-1.823976444585886	-1.823976444576074	-0.4710262161132548	0.003002115720923149	-1.01669989987629	-0.0924373622517114	-4.759761090184544e-07	6.778276228497222e-07	7.690111774894166e-06	5.484124815313497e-07	-1.469695930984279e-06	-4.19462186970468e-07	-8.764702590534037e-07
0.52	-0.2576958704685399	0.02954938221630898	0.753948483631133	1.079903732530493	-0.3623104543083029	0.01377476160850031	-0.4078416264324714	1.022135625504026	1.022135625504026	-0.02367950428939646	-0.1745328804829473	0.3335974005963353	0.1735896192603634	-0.8045661298968146	-0.1659432733664274	-0.5611109051354083	2.478804034511235	0.04893167978572521	0.5179440117617795	-0.2762483389557867	2.017300229462584	2.01730022946257	0.3364666546993651	-3.972452015750649e-05	0.511264653603388	0.2925555886433125	-0.1222242032256259	0.02717728275775045	-0.002972184685223691	-0.1968144328710596	-0.01577010436193053	0.02228922787752704	0.1284884776786614	-28.88823442734311	-4.215268144274336	-0.07367086636720875	0.6154877040803763	-444.5060378084878	-69.86445333861748	-3.056591498450822	0.4990871080705457	0.4324245231132076	-0.3531907186813524	-1.613307927321428	0.07651070191182197	-0.9099880916067714	1.470678869857839	-1.973019738316377	-1.973019738316381	-0.14542034143418	-0.01643237764621118	-1.037648591352983	-0.00113479377869385	-4.397859827876084e-07	1.293190341787224e-06	7.64279765910744e-06	6.213264699971789e-07	-1.388138511041196e-06	1.810650806187067e-07	-8.310042557433916e-07
0.53	-0.2657147370222221	0.02791194981431495	0.7483211498542693	1.104606327757148	-0.3618197660424185	0.01891702166431931	-0.4105314461719099	1.042206545947505	1.042206545947507	-0.0203335408250586	-0.1745327813127752	0.338656837292429	0.1765107548274973	-0.7991116016349522	-0.1615133007377866	-0.5642200929319301	2.461375063565461	0.04920600313151577	0.5104329860491904	-0.2617049349181059	1.996599357291954	1.996599357291956	0.3327437856058227	3.145141414111112e-05	0.5005723425783862	0.2916297241286218	-0.1268417781750395	0.02759694636430746	-0.003334476094025771	-0.200258334733437	-0.01626174804222692	0.02251478156936975	0.1320082322290299	-29.23843383146912	-4.115262660869142	-0.2456993946807971	0.3911175178638589	-448.1961529179488	-70.14087742945914	-2.56457343593142	0.5829644738058266	0.4529015019184067	-0.2696882743741202	-1.858723325693656	0.001634311368794812	-0.6836693539311532	1.447772272761086	-2.16113482304756	-2.1611348230452	-0.4828426284686337	0.01619504476770961	-1.092508248790583	-0.1457480676607553	-4.101439924659828e-07	1.587350349991125e-06	7.449460018327015e-06	6.472160242113796e-07	-1.304883567052938e-06	5.866344125574721e-07	-7.950880747676738e-07
0.54	-0.2736761925355727	0.02631974071244311	0.7426667431065934	1.129124426944848	-0.3613265863109841	0.02398176955444004	-0.4130755116505641	1.062061954895957	1.062061954895959	-0.01702423053867618	-0.1745325098900863	0.3436078537001291	0.1794211445920151	-0.7930839218306219	-0.1568986133419874	-0.5665254992979285	2.441904826720158	0.04942997289555406	0.5024415786227504	-0.2470974867989103	1.974197930456873	1.974197930456891	0.3291360191061075	-5.274019567821475e-06	0.4895805959247129	0.2904064281200715	-0.1314593531244631	0.02801660997084992	-0.00369676750278317	-0.2037022365958194	-0.01675339172252778	0.0227403352611894	0.1355279867793912	-29.58473072448825	-4.021689762093482	-0.4101308539348055	0.1189068862846654	-451.8222047540482	-70.52958293849898	-2.120877531962244	0.6137174165640972	0.4693674765448901	-0.1924344325766295	-2.021561107227025	0.06643998556136989	-1.006064434376993	1.48348768616078	-2.313130671206594	-2.313130671206586	-0.1223998226687156	-0.03801265124773043	-1.097535717087242	-0.0606210925506106	-3.877467482566864e-07	1.526137146319549e-06	7.094564435000369e-06	6.210785447854799e-07	-1.219750511355123e-06	7.765056029255695e-07	-7.697376546724519e-07
0.55	-0.2815740776603459	0.02477422824219386	0.7369932917138912	1.153437845803074	-0.3608313861318961	0.02896536246420192	-0.4154733327779974	1.081685236629012	1.081685236629011	-0.01375138296289801	-0.1745329204172475	0.3484471781761004	0.1823176113292543	-0.7863576254721304	-0.1522115226452152	-0.5680310045114285	2.420458236828932	0.04959454140298887	0.4943903980195541	-0.2324657718302274	1.950200768850908	1.950200768850907	0.3252683224508927	-4.309545373934639e-05	0.4781936140140168	0.2887954603608654	-0.1371984917173887	0.02964181498594634	-0.00392154610639228	-0.2052089135561664	-0.02019572691635471	0.02234658153177287	0.1396780743689792	-30.96684973176516	-3.505398483305833	-0.6104195202813892	0.9624420807749307	-455.4954514843257	-69.88626556528872	-1.723863933463305	0.7223997155827819	0.4673549400157265	-0.1097770189301091	-2.254349673691986	-0.01199404721357033	-0.6883189921739757	1.453158430820357	-2.481504818749939	-2.4815048187527	-0.5435792310494757	0.01978275724488207	-1.172826850105629	-0.2261140612452146	-3.003614180449964e-07	6.831518903860552e-07	5.223329588826653e-06	3.937468922140968e-07	-9.264504070593765e-07	3.696540691980316e-07	-6.089145899975414e-07
0.5600000000000001	-0.2894006370275142	0.0232753816936668	0.7313087515784157	1.177527170413662	-0.3603352321338431	0.03387170874415229	-0.4177248077500242	1.101060847563315	1.101060847563313	-0.01052213728247078	-0.1745324192294687	0.3531699233485557	0.1851950125001735	-0.7788187703099976	-0.1475654289975514	-0.5687432478526667	2.397085977192842	0.049620736688502	0.4869922526610318	-0.2178282557176132	1.924663770706608	1.924663770706589	0.3204156400316145	0.0001770689819592801	0.4662647352215284	0.2865933148560753	-0.1429376303103329	0.03126702000102732	-0.004146324709828948	-0.2067155905165141	-0.02363806211018477	0.02195282780232957	0.1438281619585511	-32.34841717500763	-2.992575879325142	-0.8063006534941196	1.780511146488091	-459.109701612295	-69.34103129365251	-1.371778588084222	0.7762291772923648	0.4611680667232003	-0.0337820581242446	-2.406695056199872	0.03876534117705056	-0.8754573854422114	1.48464791494699	-2.621097978873341	-2.621097978873356	-0.31939697548136	0.01358452272630225	-1.205915093445693	-0.1788566416674175	-1.349903846304367e-07	-1.097959828261708e-06	1.53248762723651e-06	-7.501776813185857e-08	-3.833498444461189e-07	-7.532647334442452e-07	-2.855243518270098e-07
0.5700000000000001	-0.2971488619916492	0.02182307681159172	0.7256210512526988	1.201373966707894	-0.3598379616046442	0.03869618630212623	-0.4198296838251174	1.120173590257881	1.120173590257879	-0.007334389779939461	-0.1745320045790995	0.3577717648988289	0.1880502928201174	-0.7707524881616924	-0.142868431489077	-0.5686574592410364	2.371951238432725	0.04980750487752129	0.4779917686557296	-0.2031827126544783	1.897627548625813	1.89762754862583	0.3169811795168135	-5.308612491136647e-05	0.4540765231935165	0.2843850313535222	-0.1470234369465626	0.03046663203072507	-0.004233365023376834	-0.2110949464931696	-0.02331104081558758	0.02242353021225399	0.1468962764051712	-32.41529848144126	-3.064338494028461	-0.9330162460821281	1.303175555191767	-462.7910129604832	-70.39011262314204	-1.063101305046135	0.8328674571835303	0.4779649466679486	0.05064779997055769	-2.615187822189313	0.004958428274588184	-0.899193524783793	1.449144498956337	-2.783446740513767	-2.783446740508382	-0.3786474206605436	-0.03534889217458231	-1.229432743629652	-0.2530722354850055	-4.266622478149732e-08	-2.106803699046247e-06	-5.585295039660399e-07	-3.404608821586593e-07	-7.340050360410307e-08	-1.386874763804853e-06	-1.036434276640188e-07
